<?xml version="1.0" encoding="UTF-8" standalone="no"?>
<!-- Created with Inkscape (http://www.inkscape.org/) -->

<svg
   xmlns:dc="http://purl.org/dc/elements/1.1/"
   xmlns:cc="http://creativecommons.org/ns#"
   xmlns:rdf="http://www.w3.org/1999/02/22-rdf-syntax-ns#"
   xmlns:svg="http://www.w3.org/2000/svg"
   xmlns="http://www.w3.org/2000/svg"
   xmlns:sodipodi="http://sodipodi.sourceforge.net/DTD/sodipodi-0.dtd"
   xmlns:inkscape="http://www.inkscape.org/namespaces/inkscape"
   width="210mm"
   height="297mm"
   viewBox="0 0 210 297"
   version="1.1"
   id="svg7112"
   inkscape:version="0.92.3 (2405546, 2018-03-11)"
   sodipodi:docname="fedupfedoras.svg">
  <defs
     id="defs7106" />
  <sodipodi:namedview
     id="base"
     pagecolor="#ffffff"
     bordercolor="#666666"
     borderopacity="1.0"
     inkscape:pageopacity="0.0"
     inkscape:pageshadow="2"
     inkscape:zoom="0.98999999"
     inkscape:cx="239.99756"
     inkscape:cy="637.39719"
     inkscape:document-units="px"
     inkscape:current-layer="layer2"
     showgrid="false"
     inkscape:window-width="1920"
     inkscape:window-height="1017"
     inkscape:window-x="1912"
     inkscape:window-y="-8"
     inkscape:window-maximized="1"
     inkscape:snap-grids="true"
     inkscape:snap-to-guides="true" />
  <metadata
     id="metadata7109">
    <rdf:RDF>
      <cc:Work
         rdf:about="">
        <dc:format>image/svg+xml</dc:format>
        <dc:type
           rdf:resource="http://purl.org/dc/dcmitype/StillImage" />
        <dc:title />
      </cc:Work>
    </rdf:RDF>
  </metadata>
  <g
     inkscape:groupmode="layer"
     id="layer2"
     inkscape:label="realdeal">
    <path
       style="fill:#000021;fill-opacity:1;stroke:#000000;stroke-width:0.26458332px;stroke-linecap:butt;stroke-linejoin:miter;stroke-opacity:1"
       d="m 42.711309,84.199404 c -0.446158,5.050893 9.844053,-55.476947 18.760683,-59.279783 23.216203,-9.901433 77.534768,-12.355518 69.222808,-8.552625 12.10026,16.844976 12.61222,45.03009 24.27543,68.588356 36.38589,16.513398 39.18389,14.05147 24.86977,27.050938 -6.95857,8.34775 1.36358,20.5379 -32.80127,21.20608 C 83.85202,139.7538 75.408264,125.32546 32.505258,113.30425 23.611422,109.61021 9.0143798,106.62032 8.2124637,105.22736 10.705818,98.221501 8.8382252,100.07794 23.056547,91.002973 29.566621,88.770775 34.777461,87.654578 42.711309,84.199404 Z"
       id="path7680"
       inkscape:connector-curvature="0"
       sodipodi:nodetypes="cscccccccc" />
    <path
       style="fill:#b2b2b2;fill-opacity:1;stroke:none;stroke-width:0.25871238px;stroke-linecap:butt;stroke-linejoin:miter;stroke-opacity:1"
       d="m 151.79065,71.385337 v 3e-6 c 2.38813,-0.966389 2.32317,9.552072 5.01277,15.838268 0.95955,2.242683 4.04267,4.892606 2.49081,5.619921 -7.42401,1.080687 -34.52931,0.676635 -50.85817,-1.373598 -15.028104,-1.886908 -21.075457,-2.905483 7.48394,2.493147 1.7874,4.659391 -45.731042,-8.370195 -56.368191,-11.382161 8.007118,2.783376 69.471891,6.291941 71.100781,2.798891 -31.256728,-5.072964 -64.668775,-2.188064 -82.81365,-5.504489 7.296625,11.432305 52.90499,16.293743 67.89804,16.326878 l 44.10628,-0.373179 c 0.82289,0.829255 0.91527,0.574435 0.82289,0.829255 -0.89001,2.455006 2.14099,3.006633 0.0922,4.581937 -15.41847,1.32252 -27.24126,0.43123 -35.23498,0.66966 -29.722129,0.88656 -21.83974,3.74685 -44.375928,-0.29647 -9.792669,-2.792983 -16.827237,-5.786812 -29.675589,-8.357248 -8.242581,-2.407625 -12.641129,-7.743439 -9.855376,-9.555676 -0.249138,-3.078842 -0.05887,-6.112885 2.108638,-8.945336 0.66867,-0.110948 -0.167055,-2.369239 -0.644529,-4.116171 5.269734,-2.523542 20.871906,7.140156 108.710064,0.746368 z"
       id="path7682"
       inkscape:connector-curvature="0"
       sodipodi:nodetypes="ccscsccccccscscccccc" />
    <path
       style="fill:#ffffff;fill-opacity:1;stroke:none;stroke-width:0.26563683px;stroke-linecap:butt;stroke-linejoin:miter;stroke-opacity:1"
       d="m -34.958315,78.22774 c 41.3145288,17.211028 45.270691,9.48546 99.472719,31.52007 11.388435,3.3031 31.765369,11.55787 45.875156,13.15453 22.6717,2.56553 37.93428,-2.68379 39.59891,-2.88248 4.2456,-0.50673 19.21156,-5.10082 19.74262,-15.9295 1.87142,-6.093975 8.40637,-5.573172 15.59623,-4.579849 4.00744,2.263329 -12.92654,-2.6478 -11.78068,5.237229 2.0816,14.32436 -31.63677,25.99285 -65.7263,19.27248 C 85.582199,119.63622 40.402026,100.9993 24.380024,98.146786 10.622215,95.697386 4.1176962,94.274875 -7.2530724,89.930785 -20.298261,84.947002 -32.194309,79.477877 -34.958315,78.22774 Z"
       id="path7684"
       inkscape:connector-curvature="0"
       sodipodi:nodetypes="ccssccssssc" />
    <path
       style="fill:#b2b2b2;stroke:none;stroke-width:0.26458332px;stroke-linecap:butt;stroke-linejoin:miter;stroke-opacity:1;fill-opacity:1"
       d="m 73.562183,22.72864 c -8.655007,2.070793 -14.333568,4.002531 -12.093329,5.679188 16.569865,1.884342 33.139731,0.8799 49.709596,0.801767 18.3983,-0.113555 22.24312,-3.926497 19.50968,-6.414141 -9.86741,-4.975775 -17.61276,-3.639516 -19.24242,-2.939814 8.64557,-0.626372 24.80511,3.316395 8.08449,6.013258 -2.19429,0.775068 -5.34531,1.15607 -6.94865,0.267255 C 98.469308,15.586048 81.941805,24.054675 82.047558,25.468013 75.500301,28.735316 61.202924,26.991439 73.562183,22.72864 Z"
       id="path7694"
       inkscape:connector-curvature="0"
       sodipodi:nodetypes="ccccccccc" />
    <flowRoot
       xml:space="preserve"
       id="flowRoot7696"
       style="font-style:normal;font-weight:normal;font-size:40px;line-height:1.25;font-family:sans-serif;letter-spacing:0px;word-spacing:0px;fill:#000000;fill-opacity:1;stroke:none"
       transform="matrix(0.26578564,0.03259649,0.00861513,0.26444303,26.565063,0.2146838)"><flowRegion
         id="flowRegion7698"><rect
           id="rect7700"
           width="655.68085"
           height="239.98776"
           x="52.854446"
           y="466.83884" /></flowRegion><flowPara
         id="flowPara7702"
         style="font-style:normal;font-variant:normal;font-weight:normal;font-stretch:normal;font-size:53.33333588px;font-family:'Lucida Console';-inkscape-font-specification:'Lucida Console'">Fed-up fedoras</flowPara><flowPara
         id="flowPara7704"
         style="font-style:normal;font-variant:normal;font-weight:normal;font-stretch:normal;font-size:53.33333588px;font-family:'Lucida Console';-inkscape-font-specification:'Lucida Console'" /></flowRoot>    <flowRoot
       xml:space="preserve"
       id="flowRoot821"
       style="font-style:normal;font-weight:normal;font-size:40px;line-height:1.25;font-family:sans-serif;letter-spacing:0px;word-spacing:0px;fill:#000008;fill-opacity:1;stroke:none"
       transform="matrix(0.26353144,0.02356958,-0.02203147,0.24633383,21.200309,8.0044424)"><flowRegion
         id="flowRegion823"
         style="fill:#000008;fill-opacity:1"><rect
           id="rect825"
           width="594.94952"
           height="136.36363"
           x="109.09091"
           y="540.70148"
           style="fill:#000008;fill-opacity:1" /></flowRegion><flowPara
         id="flowPara827">The best fedoras in town</flowPara></flowRoot>  </g>
</svg>
