<?xml version="1.0" encoding="UTF-8" standalone="no"?>
<!-- Created with Inkscape (http://www.inkscape.org/) -->

<svg
   xmlns:dc="http://purl.org/dc/elements/1.1/"
   xmlns:cc="http://creativecommons.org/ns#"
   xmlns:rdf="http://www.w3.org/1999/02/22-rdf-syntax-ns#"
   xmlns:svg="http://www.w3.org/2000/svg"
   xmlns="http://www.w3.org/2000/svg"
   xmlns:sodipodi="http://sodipodi.sourceforge.net/DTD/sodipodi-0.dtd"
   xmlns:inkscape="http://www.inkscape.org/namespaces/inkscape"
   width="248.79214mm"
   height="215.4467mm"
   viewBox="0 0 248.79214 215.4467"
   version="1.1"
   id="svg8"
   style="enable-background:new"
   inkscape:version="0.92.3 (2405546, 2018-03-11)"
   sodipodi:docname="logo.svg">
  <defs
     id="defs2">
    <filter
       inkscape:collect="always"
       style="color-interpolation-filters:sRGB"
       id="filter6774">
      <feBlend
         inkscape:collect="always"
         mode="exclusion"
         in2="BackgroundImage"
         id="feBlend6776" />
    </filter>
  </defs>
  <sodipodi:namedview
     id="base"
     pagecolor="#ffffff"
     bordercolor="#666666"
     borderopacity="1.0"
     inkscape:pageopacity="0.0"
     inkscape:pageshadow="2"
     inkscape:zoom="0.7"
     inkscape:cx="358.36276"
     inkscape:cy="362.95419"
     inkscape:document-units="mm"
     inkscape:current-layer="layer3"
     showgrid="false"
     showguides="false"
     inkscape:window-width="1920"
     inkscape:window-height="1017"
     inkscape:window-x="1912"
     inkscape:window-y="-8"
     inkscape:window-maximized="1" />
  <metadata
     id="metadata5">
    <rdf:RDF>
      <cc:Work
         rdf:about="">
        <dc:format>image/svg+xml</dc:format>
        <dc:type
           rdf:resource="http://purl.org/dc/dcmitype/StillImage" />
        <dc:title></dc:title>
      </cc:Work>
    </rdf:RDF>
  </metadata>
  <g
     inkscape:label="Layer 1"
     inkscape:groupmode="layer"
     id="layer1"
     style="display:inline;opacity:0.4"
     transform="translate(18.204584,14.641506)" />
  <g
     inkscape:groupmode="layer"
     id="layer2"
     inkscape:label="Layer 2"
     style="display:inline;opacity:1"
     transform="translate(18.204584,14.641506)" />
  <g
     inkscape:groupmode="layer"
     id="layer3"
     inkscape:label="Layer 3"
     style="display:inline"
     transform="translate(18.204584,14.641506)">
    <g
       transform="matrix(1.3475171,0,0,1.3475171,-447.45276,87.726671)"
       style="opacity:1;filter:url(#filter6774)"
       id="g6432">
      <g
         id="g6753"
         transform="translate(232.07738,41.199404)"
         style="fill:#000000;fill-opacity:0.99163884">
        <path
           inkscape:connector-curvature="0"
           id="path4767"
           d="m 177.6253,-103.84372 a 68.508186,66.618302 0 0 0 -68.50796,66.618158 68.508186,66.618302 0 0 0 68.50796,66.61867 68.508186,66.618302 0 0 0 68.50796,-66.61867 68.508186,66.618302 0 0 0 -68.50796,-66.618158 z m -0.18087,4.235405 a 63.507998,61.6185 0 0 1 63.50775,61.618459 63.507998,61.6185 0 0 1 -63.50775,61.618464 63.507998,61.6185 0 0 1 -63.50826,-61.618464 63.507998,61.6185 0 0 1 63.50826,-61.618459 z m -4.2602,60.587513 a 1.3229166,1.8898809 0 0 0 -1.32292,1.889808 1.3229166,1.8898809 0 0 0 1.32292,1.889812 1.3229166,1.8898809 0 0 0 1.32291,-1.889812 1.3229166,1.8898809 0 0 0 -1.32291,-1.889808 z"
           style="opacity:1;fill:#000000;fill-opacity:0.99163884;stroke:none;stroke-width:0.62599999;stroke-linecap:butt;stroke-miterlimit:4;stroke-dasharray:none;stroke-opacity:1" />
        <path
           id="path4767-9"
           d="m 177.62529,-93.276629 a 57.641336,56.051226 0 0 0 -57.64113,56.051111 57.641336,56.051226 0 0 0 57.64113,56.051535 57.641336,56.051226 0 0 0 57.64115,-56.051535 57.641336,56.051226 0 0 0 -57.64115,-56.051111 z m -0.15218,3.563577 a 53.434283,51.844499 0 0 1 53.43408,51.844468 53.434283,51.844499 0 0 1 -53.43408,51.844461 53.434283,51.844499 0 0 1 -53.43449,-51.844461 53.434283,51.844499 0 0 1 53.43449,-51.844468 z M 173.88868,-38.736 a 1.1130739,1.5901057 0 0 0 -1.11308,1.590039 1.1130739,1.5901057 0 0 0 1.11308,1.590048 1.1130739,1.5901057 0 0 0 1.11307,-1.590048 1.1130739,1.5901057 0 0 0 -1.11307,-1.590039 z"
           style="opacity:1;fill:#000000;fill-opacity:0.99163884;stroke:none;stroke-width:0.62599999;stroke-linecap:butt;stroke-miterlimit:4;stroke-dasharray:none;stroke-opacity:1"
           inkscape:connector-curvature="0" />
        <path
           style="opacity:1;fill:#000000;fill-opacity:0.99163884;stroke:none;stroke-width:1.32599998;stroke-linecap:butt;stroke-miterlimit:4;stroke-dasharray:7.95599981, 7.95599981;stroke-dashoffset:0;stroke-opacity:1"
           d="M 216.27336,-37.225306 A 38.648064,38.648064 0 0 1 177.6253,1.4227569 38.648064,38.648064 0 0 1 138.97724,-37.225306 a 38.648064,38.648064 0 0 1 38.64806,-38.648063 38.648064,38.648064 0 0 1 38.64806,38.648063 z"
           id="path6315"
           inkscape:connector-curvature="0" />
        <path
           style="display:inline;opacity:1;fill:none;fill-opacity:0.99163884;stroke:#ffffff;stroke-width:5.01165342;stroke-linecap:butt;stroke-miterlimit:4;stroke-dasharray:30.06992087, 30.06992087;stroke-dashoffset:0;stroke-opacity:1;filter:url(#filter6774)"
           d="M 294.64865,148.57725 A 146.07142,146.07142 0 0 1 148.57724,294.64867 146.07142,146.07142 0 0 1 2.5058268,148.57725 146.07142,146.07142 0 0 1 148.57724,2.5058268 146.07142,146.07142 0 0 1 294.64865,148.57725 Z"
           id="path6315-4"
           inkscape:connector-curvature="0"
           transform="matrix(0.20744023,0,0,0.20744023,146.8044,-68.046204)" />
        <g
           aria-label="Flex-Team"
           transform="matrix(1.1187171,-0.12931997,0.12931997,1.1187171,-84.953271,-295.44735)"
           style="font-style:normal;font-variant:normal;font-weight:normal;font-stretch:normal;font-size:40px;line-height:1.25;font-family:Pristina;-inkscape-font-specification:Pristina;letter-spacing:0px;word-spacing:0px;fill:#ffffff;fill-opacity:0.99163884;stroke:#00003c;stroke-width:0.55586791;stroke-miterlimit:4;stroke-dasharray:none;stroke-opacity:1"
           id="flowRoot4759">
          <path
             d="m 164.14258,236.4006 q 0.0391,0.17578 0.0391,0.3125 0,0.56641 -0.68359,0.76172 -0.0391,0.0195 -1.38672,0.21485 -3.02735,0.42968 -7.44141,0.80078 -1.15234,2.46093 -3.32031,10.07812 3.69141,-0.33203 7.48047,-0.41015 1.13281,-0.0195 1.5039,0.72265 0.0781,0.15625 0.29297,1.28906 0.0391,0.15625 0.0391,0.27344 0,0.66406 -1.52344,0.91797 -1.09375,0.19531 -1.3086,0.17578 -0.37109,-0.0195 -0.5664,-0.37109 -0.27344,-0.52735 -1.03516,-0.52735 -4.25781,0 -5.5664,0.15625 -0.70313,1.79688 -2.48047,9.6875 -0.33203,1.46485 -0.95703,1.46485 -0.41016,0 -1.67969,-0.42969 -0.76172,-0.25391 -0.56641,-1.71875 0.27344,-1.875 0.76172,-3.63281 0.23438,-0.82031 1.60156,-0.56641 0.44922,-1.01562 1.07422,-3.24219 -0.82031,-2.10937 -0.82031,-2.16796 0,-0.11719 0.0195,-0.23438 0.11719,-0.64453 1.93359,-1.03516 0.0977,-0.33203 3.20313,-10.19531 -3.08594,0.23438 -6.03516,0.9375 -3.33984,0.78125 -4.41406,1.73828 -1.13281,1.01563 -1.13281,2.05078 0,1.11329 1.28906,3.51563 0.13672,0.23437 0.13672,0.46875 0,0.48828 -0.44922,0.48828 -0.3125,0 -0.56641,-0.37109 -1.54296,-2.20703 -2.01171,-3.4375 -0.33204,-0.85938 -0.46875,-2.48047 -0.19532,-2.40235 3.88671,-3.51563 5.35157,-1.46484 10.87891,-1.95312 0.625,-1.26953 0.9375,-1.26953 0.44922,0 1.54297,0.97656 0.50781,0 3.16406,-0.39063 0.44922,-0.0781 0.9375,-0.68359 0.42969,-0.56641 2.05078,-0.64453 0.89844,-0.0391 1.23047,0.66406 0.0391,0.0977 0.41016,1.58203 z"
             style="line-height:1;letter-spacing:-0.87163299px;fill:#ffffff;fill-opacity:0.99163884;stroke:#00003c;stroke-width:0.55586791;stroke-miterlimit:4;stroke-dasharray:none;stroke-opacity:1"
             id="path6383"
             inkscape:connector-curvature="0" />
          <path
             d="m 175.94673,231.00998 q 0.2539,0.19531 0.2539,0.41015 0,0.3711 -0.44922,0.3711 -0.19531,0 -0.41015,-0.11719 -0.89844,-0.44922 -1.34766,-0.44922 -1.23047,0 -2.69531,2.38281 -5.3125,8.65235 -7.5586,22.36329 -0.0586,0.37109 -0.19531,0.99609 0.44922,-0.46875 1.32813,-1.52344 0.50781,-0.60547 0.74218,-0.60547 0.50782,0 0.0781,0.60547 -1.875,2.67578 -2.48047,5.60547 -0.21484,0.72266 -0.54687,0.72266 -0.15625,0 -0.41016,-0.17578 -0.99609,-0.66407 -1.13281,-0.78125 -0.39063,-0.39063 -0.39063,-1.01563 0,-0.3125 0.0977,-0.76172 2.26562,-12.4414 5.83984,-21.1914 2.69531,-6.60157 4.82422,-8.55469 0.58594,-0.54688 1.17188,-0.52735 0.52734,0.0195 1.36718,0.66407 0.95703,0.78125 1.91407,1.58203 z"
             style="line-height:1;letter-spacing:-0.87163299px;fill:#ffffff;fill-opacity:0.99163884;stroke:#00003c;stroke-width:0.55586791;stroke-miterlimit:4;stroke-dasharray:none;stroke-opacity:1"
             id="path6385"
             inkscape:connector-curvature="0" />
          <path
             d="m 177.24306,255.75607 q -4.74609,6.07422 -6.67968,6.07422 -0.91797,0 -2.32422,-1.26953 -1.46485,-0.68359 -1.46485,-1.83594 0,-0.21484 0.0391,-0.44922 0.35156,-2.67578 1.42578,-5.91797 -0.72266,-0.37109 -0.72266,-0.70312 0,-0.27344 0.41016,-0.27344 0.3125,0 0.64453,0.17578 1.73828,-3.90625 3.125,-5.54687 0.89844,-1.09375 1.62109,-1.09375 0.33203,0 1.64063,0.5664 -0.0977,-0.58593 0.33203,-0.68359 0.0195,0 0.91797,0 0.83984,0 0.83984,0.29297 0,0.0586 -0.0586,0.33203 -0.0586,0.27344 -0.0586,0.50781 0,0.70313 0.0195,1.73828 0.0195,1.03516 0.0195,1.38672 0,2.42188 -1.32813,3.37891 -1.21094,0.87891 -2.73437,0.87891 -0.80079,0 -2.65625,-0.42969 -0.33204,0.60547 -0.74219,2.36328 -0.54688,2.22656 -0.50781,3.94531 0.0195,1.01563 0.64453,1.01563 0.23437,0 0.60547,-0.11719 2.26562,-0.80078 6.30859,-4.88281 0.25391,-0.25391 0.50781,-0.25391 0.3711,0 0.3711,0.35156 0,0.21485 -0.19532,0.44922 z m -2.28515,-8.63281 q 0,-0.76172 -0.33203,-0.76172 -0.21485,0 -0.625,0.3125 -1.91407,1.54297 -3.35938,5.41016 0.39063,0.0586 1.36719,0.11718 1.58203,0.0586 2.36328,-0.72265 0.58594,-0.58594 0.64453,-1.9336 -0.0586,0.9961 -0.0586,-2.42187 z"
             style="line-height:1;letter-spacing:-0.87163299px;fill:#ffffff;fill-opacity:0.99163884;stroke:#00003c;stroke-width:0.55586791;stroke-miterlimit:4;stroke-dasharray:none;stroke-opacity:1"
             id="path6387"
             inkscape:connector-curvature="0" />
          <path
             d="m 190.80502,247.43576 q -0.74218,0.91797 -3.4375,3.4375 -2.59765,2.42187 -2.94922,2.89062 0.48829,2.03125 1.52344,5.23438 0.3711,0.83984 0.83985,0.83984 0.29296,0 1.03515,-0.54687 0.19531,-0.15625 0.41016,-0.15625 0.37109,0 0.37109,0.35156 0,0.17578 -0.13672,0.35156 -1.71875,1.95313 -2.69531,2.08985 -1.09375,0.13672 -1.64062,-1.28907 -0.82032,-2.16796 -1.58204,-5.23437 -7.36328,7.75391 -7.57812,11.52344 -0.0391,1.07422 0.33203,1.67968 0.44922,0.70313 -0.0781,0.70313 -0.21485,0 -0.44922,-0.27344 -0.85938,-0.99609 -1.09375,-1.48437 -0.3711,-0.72266 -0.35157,-1.83594 0.0391,-1.60156 2.75391,-5.07813 2.48047,-3.20312 6.05469,-6.5625 -1.21094,-4.82421 -2.03125,-5.95703 -0.3711,-0.48828 -0.66406,-0.48828 -0.29297,0 -0.85938,0.41016 -0.23437,0.15625 -0.42969,0.15625 -0.29297,0 -0.29297,-0.23438 0,-0.2539 0.35157,-0.52734 1.77734,-1.28906 2.65625,-1.71875 0.64453,-0.3125 0.82031,-0.3125 0.41016,0 0.64453,0.68359 0.33203,0.91797 1.75781,6.07422 2.94922,-3.02734 3.96485,-4.27734 1.71875,-2.10938 1.79687,-3.35938 0.0391,-0.66406 -0.15625,-1.13281 -0.21484,-0.48828 0.15625,-0.48828 0.13672,0 0.29297,0.17578 1.38672,1.71875 1.38672,2.67578 0,0.82031 -0.72266,1.67969 z"
             style="line-height:1;letter-spacing:-0.87163299px;fill:#ffffff;fill-opacity:0.99163884;stroke:#00003c;stroke-width:0.55586791;stroke-miterlimit:4;stroke-dasharray:none;stroke-opacity:1"
             id="path6389"
             inkscape:connector-curvature="0" />
          <path
             d="m 201.7498,252.88498 q -0.0586,0.35156 -0.19531,1.64062 -0.0781,0.70313 -0.13672,0.82032 -0.13672,0.2539 -0.70313,0.2539 -2.77344,0 -7.40234,-1.11328 -0.625,-0.15625 -0.95703,-0.15625 -0.52735,0 -0.83985,0.58594 -0.11718,0.19531 -0.27343,0.19531 -0.27344,0 -0.27344,-0.33203 0,-0.0781 0.0195,-0.13672 0.0781,-0.37109 0.35156,-1.60156 0.21485,-0.87891 0.46875,-0.87891 0.17578,0 0.46875,0.0781 4.58985,1.36718 7.14844,1.40625 0.9375,0 1.30859,-0.25391 0.21485,-0.13672 0.44922,-0.66406 0.13672,-0.29297 0.3711,-0.21485 0.23437,0.0586 0.19531,0.3711 z"
             style="line-height:1;letter-spacing:-0.87163299px;fill:#ffffff;fill-opacity:0.99163884;stroke:#00003c;stroke-width:0.55586791;stroke-miterlimit:4;stroke-dasharray:none;stroke-opacity:1"
             id="path6391"
             inkscape:connector-curvature="0" />
          <path
             d="m 231.24926,236.4006 q 0.0391,0.17578 0.0391,0.3125 0,0.56641 -0.70312,0.76172 -0.0391,0.0195 -1.34766,0.21485 -3.45703,0.48828 -7.10937,0.80078 -1.54297,3.30078 -3.78907,10.70312 -2.07031,6.75781 -3.04687,11.28906 -0.33203,1.46485 -0.97656,1.46485 -0.41016,0 -1.66016,-0.42969 -0.44922,-0.13672 -0.48828,-0.52734 0.0391,0.39062 0.0391,-1.19141 0,-2.87109 0.91797,-5.23437 0.35156,-0.87891 0.78125,-0.87891 0.11719,0 0.44922,0.0977 0.35156,0.0781 0.5664,0.0976 0.52735,-1.99219 2.5,-7.87109 2.22657,-6.64063 2.42188,-7.28516 -3.00781,0.23438 -6.01563,0.9375 -3.33984,0.82031 -4.375,1.73828 -1.17187,1.05469 -1.17187,2.08985 0,1.11328 1.28906,3.47656 0.13672,0.25391 0.13672,0.46875 0,0.48828 -0.44922,0.48828 -0.3125,0 -0.5664,-0.37109 -1.54297,-2.20703 -2.01172,-3.4375 -0.33203,-0.85938 -0.46875,-2.48047 -0.21485,-2.38281 3.92578,-3.51563 5.39062,-1.46484 10.8789,-1.95312 0.625,-1.26953 0.91797,-1.26953 0.44922,0 1.52344,0.97656 0.50781,0 3.14453,-0.39063 0.46875,-0.0781 0.95703,-0.68359 0.42969,-0.56641 2.05078,-0.64453 0.87891,-0.0391 1.21094,0.66406 0.0586,0.0977 0.42969,1.58203 z"
             style="line-height:1;letter-spacing:-0.87163299px;fill:#ffffff;fill-opacity:0.99163884;stroke:#00003c;stroke-width:0.55586791;stroke-miterlimit:4;stroke-dasharray:none;stroke-opacity:1"
             id="path6393"
             inkscape:connector-curvature="0" />
          <path
             d="m 235.86591,255.75607 q -4.7461,6.07422 -6.67969,6.07422 -0.91797,0 -2.32422,-1.26953 -1.46484,-0.68359 -1.46484,-1.83594 0,-0.21484 0.0391,-0.44922 0.35156,-2.67578 1.42578,-5.91797 -0.72266,-0.37109 -0.72266,-0.70312 0,-0.27344 0.41016,-0.27344 0.3125,0 0.64453,0.17578 1.73828,-3.90625 3.125,-5.54687 0.89844,-1.09375 1.62109,-1.09375 0.33204,0 1.64063,0.5664 -0.0977,-0.58593 0.33203,-0.68359 0.0195,0 0.91797,0 0.83984,0 0.83984,0.29297 0,0.0586 -0.0586,0.33203 -0.0586,0.27344 -0.0586,0.50781 0,0.70313 0.0195,1.73828 0.0195,1.03516 0.0195,1.38672 0,2.42188 -1.32813,3.37891 -1.21093,0.87891 -2.73437,0.87891 -0.80078,0 -2.65625,-0.42969 -0.33203,0.60547 -0.74219,2.36328 -0.54687,2.22656 -0.50781,3.94531 0.0195,1.01563 0.64453,1.01563 0.23437,0 0.60547,-0.11719 2.26562,-0.80078 6.30859,-4.88281 0.25391,-0.25391 0.50781,-0.25391 0.3711,0 0.3711,0.35156 0,0.21485 -0.19531,0.44922 z m -2.28516,-8.63281 q 0,-0.76172 -0.33203,-0.76172 -0.21485,0 -0.625,0.3125 -1.91406,1.54297 -3.35938,5.41016 0.39063,0.0586 1.36719,0.11718 1.58203,0.0586 2.36328,-0.72265 0.58594,-0.58594 0.64453,-1.9336 -0.0586,0.9961 -0.0586,-2.42187 z"
             style="line-height:1;letter-spacing:-0.87163299px;fill:#ffffff;fill-opacity:0.99163884;stroke:#00003c;stroke-width:0.55586791;stroke-miterlimit:4;stroke-dasharray:none;stroke-opacity:1"
             id="path6395"
             inkscape:connector-curvature="0" />
          <path
             d="m 250.15052,248.31467 q -1.79687,4.98046 -2.48047,8.35937 0.29297,-0.27344 0.76172,-0.83984 0.48828,-0.56641 0.60547,-0.66407 0.27344,-0.35156 0.58594,-0.35156 0.29297,0 0.29297,0.29297 0,0.17578 -0.15625,0.41016 -1.83594,2.71484 -2.44141,5.48828 -0.17578,0.78125 -0.52734,0.78125 -0.33204,0 -1.23047,-0.625 -0.52735,-0.35156 -0.60547,-0.58594 -0.0977,-0.21484 0,-0.85937 0.82031,-4.96094 2.05078,-8.24219 -1.69922,2.7539 -4.62891,6.09375 -2.55859,2.91015 -3.6914,3.71094 -0.82032,0.5664 -1.25,0.5664 -0.35157,0 -1.07422,-0.5664 -1.03516,-0.625 -1.03516,-1.71875 0,-0.21485 0.0391,-0.48829 0.35157,-2.89062 2.53907,-6.71875 2.1875,-3.84765 5.01953,-6.48437 0.91797,-0.85938 1.64062,-0.83984 0.70313,0.0391 2.67578,1.85546 0.17579,0.15625 0.17579,0.33204 0,0.3125 -0.41016,0.3125 -0.15625,0 -0.29297,-0.0586 -1.38672,-0.58594 -2.22656,0.0391 -1.83594,1.34766 -4.0625,4.7461 -2.57813,3.90625 -3.10547,7.03125 -0.0195,0.13672 -0.0195,0.2539 0,0.48829 0.39062,0.48829 0.66407,0 1.58203,-0.91797 2.1875,-2.12891 4.6875,-5.35157 2.5586,-3.33984 3.28125,-5.03906 0.52735,-1.25 0.6836,-1.75781 0.2539,-0.87891 0.54687,-0.87891 0.29297,0 1.36719,0.80078 0.44922,0.33204 0.48828,0.60547 0.0391,0.23438 -0.17578,0.82032 z"
             style="line-height:1;letter-spacing:-0.87163299px;fill:#ffffff;fill-opacity:0.99163884;stroke:#00003c;stroke-width:0.55586791;stroke-miterlimit:4;stroke-dasharray:none;stroke-opacity:1"
             id="path6397"
             inkscape:connector-curvature="0" />
          <path
             d="m 274.90389,255.09201 q -1.26953,1.89453 -3.78906,6.67969 -0.23437,0.42968 -0.29297,0.44922 -0.17578,0.0977 -0.82031,-0.0977 -1.34766,-0.41016 -1.34766,-0.78125 0,-0.21484 0.17578,-0.625 1.46485,-3.41797 2.5,-7.28516 1.05469,-3.88672 1.01563,-5.95703 0,-0.68359 -0.48828,-0.68359 -0.33203,0 -0.78125,0.37109 -1.66016,1.34766 -4.29688,5.23438 -3.16406,4.6875 -4.47265,8.76953 -0.13672,0.46875 -0.23438,0.52734 -0.11719,0.0586 -0.5664,-0.0977 -0.66407,-0.23438 -1.26954,-0.66407 -0.29296,-0.21484 -0.29296,-0.44922 0,-0.0391 0.29296,-0.76171 2.5586,-6.40625 2.5586,-12.40235 0,-0.60547 -0.35156,-0.60547 -0.25391,0 -0.64454,0.33203 -2.08984,1.75782 -4.64843,6.05469 -2.46094,4.10156 -3.67188,7.69531 -0.3125,0.91797 -0.64453,0.91797 -0.39062,0 -1.60156,-0.8789 -0.3125,-0.17578 -0.3125,-0.3711 0,-0.21484 0.42969,-0.66406 0.80078,-1.69922 1.8164,-5.85937 1.15235,-4.7461 0.9961,-6.89454 -0.29297,0.29297 -0.9961,0.97657 -0.70312,0.66406 -1.05469,1.01562 -0.2539,0.25391 -0.44921,0.25391 -0.29297,0 -0.29297,-0.39063 0,-0.3125 0.21484,-0.54687 1.09375,-1.13281 2.16797,-2.67578 0.39062,-0.54688 0.68359,-0.54688 0.21485,0 0.83985,0.625 0.48828,0.17578 0.97656,0.35156 0.41016,0.19532 0.41016,0.72266 0,0.15625 -0.0391,0.33203 -0.48828,3.76953 -1.5039,7.03125 3.45703,-6.21094 6.42578,-8.82812 0.41015,-0.3711 0.80078,-0.3711 0.41016,0 1.25,0.52735 0.80078,0.35156 1.05469,0.625 0.29297,0.35156 0.29297,1.09375 0,3.98437 -0.91797,7.08984 3.80859,-6.03516 6.93359,-8.96484 0.41016,-0.39063 0.85938,-0.39063 0.58593,0 1.44531,0.78125 1.52344,0.23438 1.44531,1.85547 -0.23437,4.70703 -2.03125,9.10156 0.97656,-1.15234 1.52344,-1.99218 0.2539,-0.41016 0.58594,-0.41016 0.29296,0 0.29296,0.3125 0,0.19531 -0.17578,0.46875 z"
             style="line-height:1;letter-spacing:-0.87163299px;fill:#ffffff;fill-opacity:0.99163884;stroke:#00003c;stroke-width:0.55586791;stroke-miterlimit:4;stroke-dasharray:none;stroke-opacity:1"
             id="path6399"
             inkscape:connector-curvature="0" />
        </g>
      </g>
    </g>
  </g>
</svg>
